<?xml version="1.0" encoding="UTF-8"?>
<svg xmlns="http://www.w3.org/2000/svg" xmlns:xlink="http://www.w3.org/1999/xlink" width="40px" height="27px" viewBox="0 0 40 27" version="1.1">
<defs>
<clipPath id="clip1">
  <path d="M 0 3.375 C 0 1.507812 1.492188 0 3.332031 0 L 36.175781 0 C 38.011719 0 39.507812 1.507812 39.507812 3.375 L 39.507812 23.625 C 39.507812 25.488281 38.011719 27 36.175781 27 L 3.332031 27 C 1.492188 27 0 25.488281 0 23.625 Z M 0 3.375 "/>
</clipPath>
<linearGradient id="linear0" gradientUnits="userSpaceOnUse" x1="0" y1="15.9987" x2="47.4079" y2="15.9987" gradientTransform="matrix(0.833333,0,0,0.84375,0,0)">
<stop offset="0" style="stop-color:rgb(23.137255%,100%,61.568627%);stop-opacity:1;"/>
<stop offset="1" style="stop-color:rgb(23.137255%,100%,78.431373%);stop-opacity:1;"/>
</linearGradient>
<clipPath id="clip2">
  <path d="M 0 5.191406 L 40 5.191406 L 40 21.808594 L 0 21.808594 Z M 0 5.191406 "/>
</clipPath>
<clipPath id="clip3">
  <path d="M 0 3.375 C 0 1.507812 1.492188 0 3.332031 0 L 36.175781 0 C 38.011719 0 39.507812 1.507812 39.507812 3.375 L 39.507812 23.625 C 39.507812 25.488281 38.011719 27 36.175781 27 L 3.332031 27 C 1.492188 27 0 25.488281 0 23.625 Z M 0 3.375 "/>
</clipPath>
<linearGradient id="linear1" gradientUnits="userSpaceOnUse" x1="0" y1="15.9583" x2="47.4079" y2="15.9583" gradientTransform="matrix(0.833333,0,0,0.84375,0,0)">
<stop offset="0" style="stop-color:rgb(23.137255%,100%,61.568627%);stop-opacity:1;"/>
<stop offset="1" style="stop-color:rgb(23.137255%,100%,78.431373%);stop-opacity:1;"/>
</linearGradient>
<clipPath id="clip4">
  <path d="M 32 10.382812 L 35.898438 10.382812 L 35.898438 19 L 32 19 Z M 32 10.382812 "/>
</clipPath>
<clipPath id="clip5">
  <path d="M 0 3.375 C 0 1.507812 1.492188 0 3.332031 0 L 36.175781 0 C 38.011719 0 39.507812 1.507812 39.507812 3.375 L 39.507812 23.625 C 39.507812 25.488281 38.011719 27 36.175781 27 L 3.332031 27 C 1.492188 27 0 25.488281 0 23.625 Z M 0 3.375 "/>
</clipPath>
<clipPath id="clip6">
  <path d="M 4.101562 8.308594 L 8.207031 8.308594 L 8.207031 17.652344 L 4.101562 17.652344 Z M 4.101562 8.308594 "/>
</clipPath>
<clipPath id="clip7">
  <path d="M 0 3.375 C 0 1.507812 1.492188 0 3.332031 0 L 36.175781 0 C 38.011719 0 39.507812 1.507812 39.507812 3.375 L 39.507812 23.625 C 39.507812 25.488281 38.011719 27 36.175781 27 L 3.332031 27 C 1.492188 27 0 25.488281 0 23.625 Z M 0 3.375 "/>
</clipPath>
<clipPath id="clip8">
  <path d="M 3.078125 10 L 9 10 L 9 12.460938 L 3.078125 12.460938 Z M 3.078125 10 "/>
</clipPath>
<clipPath id="clip9">
  <path d="M 0 3.375 C 0 1.507812 1.492188 0 3.332031 0 L 36.175781 0 C 38.011719 0 39.507812 1.507812 39.507812 3.375 L 39.507812 23.625 C 39.507812 25.488281 38.011719 27 36.175781 27 L 3.332031 27 C 1.492188 27 0 25.488281 0 23.625 Z M 0 3.375 "/>
</clipPath>
<clipPath id="clip10">
  <path d="M 3.078125 11.421875 L 9 11.421875 L 9 14 L 3.078125 14 Z M 3.078125 11.421875 "/>
</clipPath>
<clipPath id="clip11">
  <path d="M 0 3.375 C 0 1.507812 1.492188 0 3.332031 0 L 36.175781 0 C 38.011719 0 39.507812 1.507812 39.507812 3.375 L 39.507812 23.625 C 39.507812 25.488281 38.011719 27 36.175781 27 L 3.332031 27 C 1.492188 27 0 25.488281 0 23.625 Z M 0 3.375 "/>
</clipPath>
<clipPath id="clip12">
  <path d="M 8.207031 10 L 15.382812 10 L 15.382812 17.652344 L 8.207031 17.652344 Z M 8.207031 10 "/>
</clipPath>
<clipPath id="clip13">
  <path d="M 0 3.375 C 0 1.507812 1.492188 0 3.332031 0 L 36.175781 0 C 38.011719 0 39.507812 1.507812 39.507812 3.375 L 39.507812 23.625 C 39.507812 25.488281 38.011719 27 36.175781 27 L 3.332031 27 C 1.492188 27 0 25.488281 0 23.625 Z M 0 3.375 "/>
</clipPath>
<clipPath id="clip14">
  <path d="M 16 8.308594 L 22.5625 8.308594 L 22.5625 17.652344 L 16 17.652344 Z M 16 8.308594 "/>
</clipPath>
<clipPath id="clip15">
  <path d="M 0 3.375 C 0 1.507812 1.492188 0 3.332031 0 L 36.175781 0 C 38.011719 0 39.507812 1.507812 39.507812 3.375 L 39.507812 23.625 C 39.507812 25.488281 38.011719 27 36.175781 27 L 3.332031 27 C 1.492188 27 0 25.488281 0 23.625 Z M 0 3.375 "/>
</clipPath>
<clipPath id="clip16">
  <path d="M 23 8.308594 L 29.742188 8.308594 L 29.742188 17.652344 L 23 17.652344 Z M 23 8.308594 "/>
</clipPath>
<clipPath id="clip17">
  <path d="M 0 3.375 C 0 1.507812 1.492188 0 3.332031 0 L 36.175781 0 C 38.011719 0 39.507812 1.507812 39.507812 3.375 L 39.507812 23.625 C 39.507812 25.488281 38.011719 27 36.175781 27 L 3.332031 27 C 1.492188 27 0 25.488281 0 23.625 Z M 0 3.375 "/>
</clipPath>
<clipPath id="clip18">
  <path d="M 29 10.382812 L 32.820312 10.382812 L 32.820312 17 L 29 17 Z M 29 10.382812 "/>
</clipPath>
<clipPath id="clip19">
  <path d="M 0 3.375 C 0 1.507812 1.492188 0 3.332031 0 L 36.175781 0 C 38.011719 0 39.507812 1.507812 39.507812 3.375 L 39.507812 23.625 C 39.507812 25.488281 38.011719 27 36.175781 27 L 3.332031 27 C 1.492188 27 0 25.488281 0 23.625 Z M 0 3.375 "/>
</clipPath>
</defs>
<g id="surface1">
<g clip-path="url(#clip1)" clip-rule="nonzero">
<path style=" stroke:none;fill-rule:nonzero;fill:url(#linear0);" d="M 0 3.375 C 0 1.507812 1.492188 0 3.332031 0 L 36.175781 0 C 38.011719 0 39.507812 1.507812 39.507812 3.375 L 39.507812 23.625 C 39.507812 25.488281 38.011719 27 36.175781 27 L 3.332031 27 C 1.492188 27 0 25.488281 0 23.625 Z M 0 3.375 "/>
</g>
<g clip-path="url(#clip2)" clip-rule="nonzero">
<g clip-path="url(#clip3)" clip-rule="nonzero">
<path style=" stroke:none;fill-rule:nonzero;fill:url(#linear1);" d="M 36.445312 21.738281 L 3.0625 21.738281 C 1.371094 21.738281 0 20.292969 0 18.519531 L 0 8.410156 C 0 6.636719 1.371094 5.191406 3.0625 5.191406 L 36.445312 5.191406 C 38.136719 5.191406 39.507812 6.636719 39.507812 8.410156 L 39.507812 18.519531 C 39.507812 20.292969 38.132812 21.738281 36.445312 21.738281 Z M 36.445312 21.738281 "/>
</g>
</g>
<g clip-path="url(#clip4)" clip-rule="nonzero">
<g clip-path="url(#clip5)" clip-rule="nonzero">
<path style=" stroke:none;fill-rule:nonzero;fill:rgb(16.078431%,16.078431%,16.078431%);fill-opacity:1;" d="M 34.191406 10.441406 L 32.078125 18.921875 L 32.070312 18.941406 L 33.722656 18.941406 L 35.835938 10.441406 Z M 34.191406 10.441406 "/>
</g>
</g>
<g clip-path="url(#clip6)" clip-rule="nonzero">
<g clip-path="url(#clip7)" clip-rule="nonzero">
<path style=" stroke:none;fill-rule:nonzero;fill:rgb(16.078431%,16.078431%,16.078431%);fill-opacity:1;" d="M 8.042969 15.269531 C 7.828125 15.386719 7.53125 15.460938 7.25 15.460938 C 6.660156 15.460938 6.320312 15.359375 6.285156 14.855469 L 6.285156 14.824219 C 6.285156 14.800781 6.28125 14.78125 6.28125 14.761719 L 6.28125 13.296875 L 6.285156 13.121094 L 6.285156 12.089844 L 6.28125 12.089844 L 6.28125 11.644531 L 6.285156 11.472656 L 6.285156 10.472656 L 4.816406 10.675781 C 5.8125 10.472656 6.382812 9.644531 6.382812 8.824219 L 6.382812 8.316406 L 4.726562 8.316406 L 4.726562 10.691406 L 4.636719 10.722656 L 4.636719 15.117188 C 4.6875 16.351562 5.464844 17.085938 6.734375 17.085938 C 7.183594 17.085938 7.675781 16.980469 8.058594 16.800781 L 8.066406 16.796875 L 8.066406 15.257812 Z M 8.042969 15.269531 "/>
</g>
</g>
<g clip-path="url(#clip8)" clip-rule="nonzero">
<g clip-path="url(#clip9)" clip-rule="nonzero">
<path style=" stroke:none;fill-rule:nonzero;fill:rgb(16.078431%,16.078431%,16.078431%);fill-opacity:1;" d="M 8.304688 10.121094 L 3.667969 10.875 L 3.667969 12.109375 L 8.304688 11.359375 Z M 8.304688 10.121094 "/>
</g>
</g>
<g clip-path="url(#clip10)" clip-rule="nonzero">
<g clip-path="url(#clip11)" clip-rule="nonzero">
<path style=" stroke:none;fill-rule:nonzero;fill:rgb(16.078431%,16.078431%,16.078431%);fill-opacity:1;" d="M 8.304688 11.929688 L 3.667969 12.679688 L 3.667969 13.859375 L 8.304688 13.109375 Z M 8.304688 11.929688 "/>
</g>
</g>
<g clip-path="url(#clip12)" clip-rule="nonzero">
<g clip-path="url(#clip13)" clip-rule="nonzero">
<path style=" stroke:none;fill-rule:nonzero;fill:rgb(16.078431%,16.078431%,16.078431%);fill-opacity:1;" d="M 13.5 12.496094 C 13.433594 11.128906 12.621094 10.3125 11.292969 10.3125 C 10.527344 10.3125 9.894531 10.625 9.472656 11.210938 C 9.042969 11.796875 8.816406 12.65625 8.816406 13.703125 C 8.816406 14.746094 9.042969 15.609375 9.472656 16.191406 C 9.894531 16.777344 10.527344 17.089844 11.292969 17.089844 C 12.621094 17.089844 13.4375 16.269531 13.5 14.890625 L 13.5 16.960938 L 15.15625 16.960938 L 15.15625 10.453125 L 13.5 10.722656 Z M 13.589844 13.703125 C 13.589844 14.917969 12.980469 15.703125 12.042969 15.703125 C 11.074219 15.703125 10.496094 14.957031 10.496094 13.703125 C 10.496094 12.441406 11.074219 11.6875 12.042969 11.6875 C 12.515625 11.6875 12.910156 11.878906 13.179688 12.242188 C 13.445312 12.605469 13.589844 13.105469 13.589844 13.703125 Z M 13.589844 13.703125 "/>
</g>
</g>
<g clip-path="url(#clip14)" clip-rule="nonzero">
<g clip-path="url(#clip15)" clip-rule="nonzero">
<path style=" stroke:none;fill-rule:nonzero;fill:rgb(16.078431%,16.078431%,16.078431%);fill-opacity:1;" d="M 19.976562 10.3125 C 18.640625 10.3125 17.828125 11.128906 17.765625 12.503906 L 17.765625 8.5625 L 16.113281 8.832031 L 16.113281 16.960938 L 17.765625 16.960938 L 17.765625 14.886719 C 17.828125 16.269531 18.644531 17.085938 19.976562 17.085938 C 21.535156 17.085938 22.460938 15.820312 22.460938 13.699219 C 22.460938 11.582031 21.535156 10.3125 19.976562 10.3125 Z M 19.222656 15.703125 C 18.285156 15.703125 17.679688 14.917969 17.679688 13.699219 C 17.679688 13.105469 17.820312 12.605469 18.085938 12.246094 C 18.355469 11.882812 18.753906 11.691406 19.222656 11.691406 C 20.191406 11.691406 20.769531 12.441406 20.769531 13.703125 C 20.769531 14.957031 20.191406 15.703125 19.222656 15.703125 Z M 19.222656 15.703125 "/>
</g>
</g>
<g clip-path="url(#clip16)" clip-rule="nonzero">
<g clip-path="url(#clip17)" clip-rule="nonzero">
<path style=" stroke:none;fill-rule:nonzero;fill:rgb(16.078431%,16.078431%,16.078431%);fill-opacity:1;" d="M 26.957031 10.3125 C 25.625 10.3125 24.808594 11.128906 24.746094 12.503906 L 24.746094 8.5625 L 23.09375 8.832031 L 23.09375 16.960938 L 24.746094 16.960938 L 24.746094 14.886719 C 24.808594 16.269531 25.628906 17.085938 26.957031 17.085938 C 28.511719 17.085938 29.441406 15.820312 29.441406 13.699219 C 29.441406 11.582031 28.511719 10.3125 26.957031 10.3125 Z M 26.210938 15.703125 C 25.269531 15.703125 24.664062 14.917969 24.664062 13.699219 C 24.664062 13.105469 24.808594 12.605469 25.070312 12.246094 C 25.34375 11.882812 25.738281 11.691406 26.210938 11.691406 C 27.179688 11.691406 27.757812 12.441406 27.757812 13.703125 C 27.757812 14.957031 27.179688 15.703125 26.210938 15.703125 Z M 26.210938 15.703125 "/>
</g>
</g>
<g clip-path="url(#clip18)" clip-rule="nonzero">
<g clip-path="url(#clip19)" clip-rule="nonzero">
<path style=" stroke:none;fill-rule:nonzero;fill:rgb(16.078431%,16.078431%,16.078431%);fill-opacity:1;" d="M 29.445312 10.441406 L 31.210938 10.441406 L 32.644531 16.953125 L 31.0625 16.953125 Z M 29.445312 10.441406 "/>
</g>
</g>
<path style=" stroke:none;fill-rule:nonzero;fill:rgb(76.862745%,76.862745%,76.862745%);fill-opacity:1;" d="M 36.066406 27 L 3.441406 27 C 1.515625 27 0 25.453125 0 23.484375 L 0 3.515625 C 0 1.546875 1.515625 0 3.441406 0 L 36.066406 0 C 37.851562 0 39.507812 1.546875 39.507812 3.515625 L 39.507812 23.484375 C 39.507812 25.453125 37.851562 27 36.066406 27 Z M 3.441406 0.28125 C 1.652344 0.28125 0.277344 1.6875 0.277344 3.515625 L 0.277344 23.484375 C 0.277344 25.3125 1.652344 26.71875 3.441406 26.71875 L 36.066406 26.71875 C 37.851562 26.71875 39.230469 25.3125 39.230469 23.484375 L 39.230469 3.515625 C 39.230469 1.6875 37.851562 0.28125 36.066406 0.28125 C 36.066406 0.28125 3.441406 0.28125 3.441406 0.28125 Z M 3.441406 0.28125 "/>
</g>
</svg>
