<?xml version="1.0" encoding="UTF-8"?>
<svg xmlns="http://www.w3.org/2000/svg" xmlns:xlink="http://www.w3.org/1999/xlink" width="40px" height="27px" viewBox="0 0 40 27" version="1.1">
<g id="surface1">
<path style=" stroke:none;fill-rule:nonzero;fill:rgb(100%,100%,100%);fill-opacity:1;" d="M 3.484375 0.140625 L 36.515625 0.140625 C 38.328125 0.140625 39.859375 1.6875 39.859375 3.515625 L 39.859375 23.484375 C 39.859375 25.3125 38.328125 26.859375 36.515625 26.859375 L 3.484375 26.859375 C 1.671875 26.859375 0.140625 25.3125 0.140625 23.484375 L 0.140625 3.515625 C 0.140625 1.6875 1.671875 0.140625 3.484375 0.140625 Z M 3.484375 0.140625 "/>
<path style=" stroke:none;fill-rule:nonzero;fill:rgb(76.862745%,76.862745%,76.862745%);fill-opacity:1;" d="M 36.515625 27 L 3.484375 27 C 1.53125 27 0 25.453125 0 23.484375 L 0 3.515625 C 0 1.546875 1.53125 0 3.484375 0 L 36.515625 0 C 38.328125 0 40 1.546875 40 3.515625 L 40 23.484375 C 40 25.453125 38.328125 27 36.515625 27 Z M 3.484375 0.28125 C 1.671875 0.28125 0.277344 1.6875 0.277344 3.515625 L 0.277344 23.484375 C 0.277344 25.3125 1.671875 26.71875 3.484375 26.71875 L 36.515625 26.71875 C 38.328125 26.71875 39.722656 25.3125 39.722656 23.484375 L 39.722656 3.515625 C 39.722656 1.6875 38.328125 0.28125 36.515625 0.28125 Z M 3.484375 0.28125 "/>
<path style=" stroke:none;fill-rule:nonzero;fill:rgb(0%,0%,0%);fill-opacity:1;" d="M 10.730469 9.421875 C 11.148438 9 11.289062 8.4375 11.148438 7.875 C 10.589844 7.875 10.171875 8.15625 9.753906 8.578125 C 9.476562 8.859375 9.199219 9.5625 9.199219 9.984375 C 9.753906 10.125 10.3125 9.703125 10.730469 9.421875 Z M 10.730469 9.421875 "/>
<path style=" stroke:none;fill-rule:nonzero;fill:rgb(0%,0%,0%);fill-opacity:1;" d="M 11.148438 10.125 C 10.3125 10.125 9.753906 10.546875 9.335938 10.546875 C 8.917969 10.546875 8.363281 10.125 7.804688 10.125 C 6.96875 10.125 6.269531 10.546875 5.851562 11.25 C 5.015625 12.65625 5.574219 14.90625 6.410156 16.03125 C 6.828125 16.59375 7.246094 17.296875 7.945312 17.296875 C 8.5 17.296875 8.78125 16.875 9.476562 16.875 C 10.171875 16.875 10.453125 17.296875 11.011719 17.296875 C 11.707031 17.296875 12.125 16.734375 12.402344 16.171875 C 12.683594 15.75 12.960938 15.328125 13.101562 14.765625 C 13.101562 14.765625 11.847656 14.34375 11.847656 12.796875 C 11.847656 11.53125 12.820312 10.96875 12.820312 10.96875 C 12.265625 10.265625 11.429688 10.125 11.148438 10.125 Z M 11.148438 10.125 "/>
<path style=" stroke:none;fill-rule:nonzero;fill:rgb(0%,0%,0%);fill-opacity:1;" d="M 18.8125 8.4375 C 20.484375 8.4375 21.738281 9.5625 21.738281 11.25 C 21.738281 12.9375 20.484375 14.203125 18.8125 14.203125 L 17 14.203125 L 17 17.15625 L 15.605469 17.15625 L 15.605469 8.4375 Z M 17 13.078125 L 18.535156 13.078125 C 19.648438 13.078125 20.347656 12.375 20.347656 11.390625 C 20.347656 10.265625 19.648438 9.703125 18.535156 9.703125 L 17 9.703125 Z M 17 13.078125 "/>
<path style=" stroke:none;fill-rule:nonzero;fill:rgb(0%,0%,0%);fill-opacity:1;" d="M 22.019531 15.464844 C 22.019531 14.339844 22.855469 13.636719 24.390625 13.636719 L 26.0625 13.496094 L 26.0625 13.074219 C 26.0625 12.371094 25.644531 11.949219 24.808594 11.949219 C 24.109375 11.949219 23.691406 12.371094 23.554688 12.792969 L 22.296875 12.792969 C 22.296875 11.667969 23.414062 10.824219 24.808594 10.824219 C 26.339844 10.824219 27.316406 11.667969 27.316406 12.933594 L 27.316406 17.292969 L 26.0625 17.292969 L 26.0625 16.308594 C 25.644531 17.011719 24.945312 17.433594 24.109375 17.433594 C 22.855469 17.292969 22.019531 16.589844 22.019531 15.464844 Z M 26.0625 14.902344 L 26.0625 14.480469 L 24.667969 14.480469 C 23.832031 14.480469 23.414062 14.902344 23.414062 15.464844 C 23.414062 16.027344 23.832031 16.308594 24.527344 16.308594 C 25.503906 16.308594 26.0625 15.746094 26.0625 14.902344 Z M 26.0625 14.902344 "/>
<path style=" stroke:none;fill-rule:nonzero;fill:rgb(0%,0%,0%);fill-opacity:1;" d="M 28.570312 19.546875 L 28.570312 18.5625 C 28.710938 18.5625 28.847656 18.5625 28.988281 18.5625 C 29.546875 18.5625 29.964844 18.28125 30.101562 17.71875 L 30.242188 17.296875 L 28.011719 10.96875 L 29.40625 10.96875 L 30.941406 16.171875 L 32.472656 10.96875 L 33.867188 10.96875 L 31.636719 17.578125 C 31.078125 19.125 30.519531 19.6875 29.128906 19.6875 C 28.847656 19.6875 28.710938 19.6875 28.570312 19.546875 Z M 28.570312 19.546875 "/>
</g>
</svg>
